<?xml version="1.0" encoding="UTF-8" standalone="no"?>
<!-- Svg Vector Icons : http://www.onlinewebfonts.com/icon -->

<svg
   xmlns:dc="http://purl.org/dc/elements/1.1/"
   xmlns:cc="http://creativecommons.org/ns#"
   xmlns:rdf="http://www.w3.org/1999/02/22-rdf-syntax-ns#"
   xmlns:svg="http://www.w3.org/2000/svg"
   xmlns="http://www.w3.org/2000/svg"
   xmlns:sodipodi="http://sodipodi.sourceforge.net/DTD/sodipodi-0.dtd"
   xmlns:inkscape="http://www.inkscape.org/namespaces/inkscape"
   version="1.1"
   x="0px"
   y="0px"
   viewBox="0 0 1000 1000"
   enable-background="new 0 0 1000 1000"
   xml:space="preserve"
   id="svg8"
   sodipodi:docname="label.svg"
   inkscape:export-filename="/Users/avenix/Desktop/label.png"
   inkscape:export-xdpi="2.6848762"
   inkscape:export-ydpi="2.6848762"
   inkscape:version="0.92.2 5c3e80d, 2017-08-06"><defs
     id="defs12" /><sodipodi:namedview
     pagecolor="#70ffff"
     bordercolor="#666666"
     borderopacity="1"
     objecttolerance="10"
     gridtolerance="10"
     guidetolerance="10"
     inkscape:pageopacity="0"
     inkscape:pageshadow="2"
     inkscape:window-width="1923"
     inkscape:window-height="1200"
     id="namedview10"
     showgrid="false"
     inkscape:zoom="0.236"
     inkscape:cx="500"
     inkscape:cy="500"
     inkscape:window-x="391"
     inkscape:window-y="0"
     inkscape:window-maximized="0"
     inkscape:current-layer="g6" /><metadata
     id="metadata2"> Svg Vector Icons : http://www.onlinewebfonts.com/icon <rdf:RDF><cc:Work
     rdf:about=""><dc:format>image/svg+xml</dc:format><dc:type
       rdf:resource="http://purl.org/dc/dcmitype/StillImage" /><dc:title></dc:title></cc:Work></rdf:RDF></metadata><g
     id="g6"><path
       d="m 473.58191,-166.44155 -304.12663,304.12662 -1.13137,1.13137 c -6.78822,6.78823 -10.96015,17.32412 -10.88944,27.57717 l 0.49497,667.15525 -0.42426,1.13137 c -0.0707,20.85965 16.75843,37.68879 37.47666,37.47666 l 609.03107,-0.0707 0.91924,0.21213 c 20.64752,0.14142 37.61808,-16.82914 37.61808,-37.61808 l 0,-668.49875 c 0,-10.60661 -3.60625,-20.29397 -10.96016,-27.64788 L 526.75634,-166.30013 c -14.70782,-14.70782 -38.3959,-14.91996 -53.17443,-0.14142 z m 293.80287,347.40156 v 0 l -0.0707,615.96071 -534.50202,0.35356 0.0707,-616.66783 L 499.95699,-86.467777 767.38478,180.96001 Z M 580.1429,222.25504 v 0 c 43.6992,-43.6992 43.76991,-115.61195 -0.14142,-159.523286 -43.91133,-43.911331 -115.82409,-43.84062 -159.52329,-0.141421 -43.91133,43.911327 -44.26488,115.399827 0,159.664707 43.84062,43.98205 115.75338,43.91133 159.66471,0 z M 452.65155,94.763691 v 0 c 26.30437,-26.304372 68.8722,-26.587215 95.3887,-0.07071 26.30438,26.304369 26.4458,69.579309 0.28285,95.742259 -26.4458,26.44579 -69.79144,26.23366 -96.0251,0 -26.58722,-26.44579 -26.16295,-69.15504 0.35355,-95.671549 z"
       id="path4"
       style="fill:#ffffff;fill-opacity:1;stroke:#ffffff;stroke-width:30;stroke-miterlimit:4;stroke-dasharray:none;stroke-opacity:1"
       inkscape:connector-curvature="0" /></g></svg>